<svg xmlns="http://www.w3.org/2000/svg" viewBox="0 0 140 40" width="140" height="40">
  <style>
    .boticario-text {
      font-family: 'Times New Roman', serif;
      font-size: 24px;
      fill: white;
    }
  </style>
  <path d="M20,5 C10,5 5,10 5,20 C5,30 10,35 20,35 C30,35 35,30 35,20 C35,10 30,5 20,5 Z M20,32 C12,32 8,28 8,20 C8,12 12,8 20,8 C28,8 32,12 32,20 C32,28 28,32 20,32 Z" fill="white"/>
  <path d="M19,12 L16,15 L19,18 L19,12 Z M21,22 L24,25 L21,28 L21,22 Z" fill="white"/>
  <text x="45" y="27" class="boticario-text">Boticário</text>
</svg>
